<?xml version="1.0" encoding="utf-8"?>
<!-- Generator: Adobe Illustrator 23.0.4, SVG Export Plug-In . SVG Version: 6.00 Build 0)  -->
<svg version="1.1" id="圖層_1" xmlns="http://www.w3.org/2000/svg" xmlns:xlink="http://www.w3.org/1999/xlink" x="0px" y="0px"
	 viewBox="0 0 434 449.5" style="enable-background:new 0 0 434 449.5;" xml:space="preserve">
<style type="text/css">
	.st0{fill:#FFFFFF;stroke:#000000;stroke-width:7;stroke-miterlimit:10;}
	.st1{fill:#FFFFFF;stroke:#000000;stroke-width:3;stroke-miterlimit:10;}
	.st2{fill:#FFFFFF;}
</style>
<title>logo</title>
<path class="st0" d="M134.6,291c2.8,1.6,5.1,3.2,7.6,4.4c24.7,11.9,50.6,15.8,77.5,10.9c17.9-3.2,34.2-12.2,46.4-25.7
	c6.6-7.1,11.6-15.5,14.8-24.7c3.3-9.2,9.3-15.6,19.2-17.3c4.7-0.7,9.4-1,14.2-1c9.9-0.1,19.8-0.1,29.7,0.1c4.3,0.1,8.6,0.4,12.9,1.1
	c4.9,0.8,5.6,1.9,5.4,6.9c0,0.7-0.1,1.3-0.2,2c-1,5.5-1.9,11-3.1,16.4c-1.4,6.4-3.7,12.7-4.6,19.2c-2.5,19.4-4.5,38.9-6.7,58.3
	c-0.6,5.3-1.6,10.4-4.2,15.2c-5.3,9.8-11,19.4-18.2,28c-0.6,0.8-1.1,1.7-1.6,2.6c0.9-0.1,1.2-0.1,1.3-0.2
	c8.4-9.2,14.6-19.9,20.5-30.8c-1,8.9-2,17.7-3.5,26.5c-1,6-2.9,11.8-7,16.6c-0.7,0.8-1.6,1.2-2.6,1.3c-9.8-0.7-19.6-1.7-29.4-2.2
	c-31.4-1.3-62.8-2.7-94.1-3.6c-23.6-0.7-47.3-0.3-70.9,1c-22.8,1.2-45.6,1.4-68.4,1.8c-4.7,0.1-9.4-0.8-14.2-1.3
	c-2.4-0.2-3.3-1.5-2.7-3.9c0.8-3.4,2-6.8,2-10.2c0-19.2,2.9-38.2,4.2-57.3c1.2-16.4,2.3-32.7,3.4-49.1c0.6-8.5,1-16.9,1.5-25.3
	l1.4-0.3c-0.4-1.7-1.3-3.3-1.1-4.7c0.4-1.6,1.2-3.1,2.3-4.3c2.9-3.3,6.4-6.2,9-9.7c7.2-9.9,14-20.1,21-30.1
	c6.1-8.6,12.7-16.8,21.6-22.6c0.4-0.2,0.6-0.8,0.8-1.2l-0.5-0.6c-1.8,1.2-3.6,2.4-5.3,3.7c-7.5,6-13.3,13.5-18.8,21.3
	c-6.5,9.3-12.8,18.9-19.6,28.1c-2.9,3.9-6.6,7.2-10,10.8c-0.1-6,0.2-11.6,0.6-17.3c1.3-19.5,2.7-39,3.8-58.6c0.2-3.1,1-5.1,3.9-6.3
	c0.8-0.5,1.4-1.1,2-1.7l-0.6-0.7l-4.4,2.5l-0.6-0.3c0.2-1.1,0.6-2.2,1.2-3.2c3.3-4.3,6.5-8.7,10.1-12.7c7.6-8.5,15.8-16.5,23.2-25.2
	c11.7-13.6,22.8-27.8,34.7-41.3c9.1-10.4,19.7-19.1,32.5-24.8c0.4-0.3,0.8-0.6,1.1-1l-0.3-0.6c-0.7,0.1-1.4,0.3-2.1,0.7
	c-5.9,3.6-12,6.8-17.5,11c-13.5,10.4-24,23.7-34.7,36.8c-8.2,10-16.6,20-25,29.8c-7.2,8.3-14.7,16.4-22,24.5
	c-0.1,0.2-0.4,0.2-0.7,0.3c-0.1-0.2-0.1-0.4-0.1-0.5c2-20.5,3.9-40.9,6-61.4c0.2-1.3,0.9-2.4,1.9-3.3c3.4-2.9,7-5.7,10.4-8.5
	c7-5.9,14-11.9,21.3-17.7c1.8-1.5,4-3.4,6.8-1c-0.2-2.3-1-3.1-2.7-2.4c-2.4,0.8-4.7,2-6.8,3.6c-6.8,5.6-13.4,11.4-20.2,17.1
	c-3.1,2.6-6.3,5.1-9.5,7.6L76.4,86c3-14,5.9-28,8.9-41.9c-0.7,0.3-1.2,1-1.4,1.8c-2.8,13.1-5.7,26.1-8.3,39.3
	c-0.3,2.1-1.4,4-3.1,5.4c-4.8,4.3-9.6,8.8-14.2,13.3c-1.2,1.3-2,2.8-2.5,4.5c-0.6,2.1,0.8,3.3,2.9,2.8c-2.1-2.4-2.3-3,0.1-5.7
	c3.1-3.5,6.5-6.7,9.8-9.9c1.7-1.6,3.6-3.1,5.8-5c-0.1,1.5-0.1,2.2-0.2,2.9c-1.6,16.6-3.2,33.1-5,49.7c-0.6,5.7,0.5,11.7-2.7,17
	c-0.2,0.3,0,1.2,0.2,1.3c1.8,0.7,1.2,2.2,1.1,3.4c-0.7,10.2-1.4,20.4-2.1,30.7c-1.1,18.3-2.3,36.5-3.3,54.8
	c-0.9,15.2-1.6,30.5-2.6,45.7c-0.6,9.9-1.4,19.8-2.2,29.6c-1,11.9-2,23.7-3.3,35.6c-1.1,10.4,0.3,21-2.9,31.2
	c-0.1,0.3-0.1,0.7-0.1,1c-0.4,2.5,0.7,3.8,3.1,4.2c2.8,0.6,5.6,1,8.4,1.2c20.7,1.3,41.3,0.2,61.9-0.7c14.2-0.6,28.4-1.7,42.7-2
	c12.2-0.3,24.5-0.1,36.7,0.2c17.7,0.3,35.5,0.7,53.2,1.4c17.9,0.7,35.8,1.8,53.7,2.8c7,0.4,14,1,21.1,1.5l0.2,0.6l-4.7,3.8l0.4,0.6
	c0.5-0.2,1.1-0.2,1.4-0.5c3.7-4,8.4-4.3,13.4-3.8c1.2,0.1,2.5,0.1,3.7-0.2c2.2-0.4,4.3-1.1,6.4-1.9c1.7-0.8,2.7-2.7,2.3-4.6
	c-0.3-2.1-1-4.2-3.1-5.3c0,0.7,0.2,1.4,0.5,2c0.3,0.7,0.6,1.4,0.9,2c0.8,2.4,0.2,4.3-2.1,5.2c-4.9,1.9-10,1.7-15.5,1.1
	c4.9-6.2,7-13,8-20.2c1.6-11.4,3.2-22.9,4.6-34.3c1.7-14,3.2-28,4.9-41.9c1.3-10.7,2-21.5,4.9-32c2.2-8.6,4-17.3,5.2-26.1
	c0.9-6.3-0.6-7.7-6.8-9c-0.9-0.2-1.8-0.4-2.7-0.4c-7.1-0.1-14.1-0.1-21.2-0.2c-8.9-0.1-17.8-0.4-26.7-0.2
	c-13.6,0.3-22.1,6.8-26.8,19.4c-1.4,3.8-3,7.4-5,10.9c-11,19-27.8,30.5-48.5,36.7c-12,3.6-24.2,4-36.6,3
	c-14.1-1.2-27.8-3.9-40.8-9.6c-4.3-1.9-8.5-4.4-12.6-6.6c0.8-1.5,1.3-2.5,1.8-3.4l-0.9-0.7l-1.9,3.1c-7.7-5.3-13.8-12.5-17.9-20.9
	c-0.7-0.9-0.5-2.2,0.5-2.9c0,0,0.1-0.1,0.1-0.1c1.8-1.5,3.5-3.1,5.2-4.7c0.4-0.5,0.8-1,1.2-1.5l-0.7-0.7l-7.9,6.9
	c-1-4.5-2.2-8.4-2.7-12.4c-1.6-12.1,0.2-23.9,3.3-35.6c6.6-24.1,18.4-45.8,32.3-66.3c7.2-10.6,16.1-19.4,27.7-25.4
	c14-7.2,28.8-11.5,44.2-14.2c12.6-2.2,25.3-3.7,38-5.7c17.4-2.8,34.7-5.7,52.3-6c13.6-0.3,27.2,0.5,40.2,4.7c5,1.6,9.7,3.8,14.6,5.8
	c4.3,1.8,7.4,0.6,9.1-3.7c0.9-2.1,1.5-4.4,1.7-6.7c0.6-11.8,2.8-23.2,5.4-34.7c2.2-9.6,3.9-19.2,3.6-29.2c-0.2-7.3-2.9-10.2-10.1-11
	c-0.4-0.1-0.8-0.1-1.2-0.1c-8,0.3-16,0.6-23.9,1c-9.6,0.6-19.3,1.3-28.9,2c-1.4,0.1-2.7,0.4-4.1,0.7l0.2,1.1l8.4-0.8l0.3,0.7
	c-0.8,0.7-1.6,1.8-2.5,2.1c-3.2,1.3-6.4,2.3-9.7,3.1c-18.4,3.7-37,4.2-55.7,5c-0.8,0-1.7-0.7-1.9-0.8c-2.6,0.5-5.3,0.9-8,1.2
	c-6.1,0.3-12.2,0.5-18.2,0.4c-30.7-0.2-61.3-0.1-92-0.7c-21.5-0.4-43-1.7-64.4-2.5c-1.3-0.1-2.7,0-4,0v1.3
	c60.2,3.4,120.5,4.3,181.1,3.3c-0.2,0.4-0.6,0.5-0.9,0.7c-22,18.2-44,36.4-65.9,54.7c-9,7.5-17.6,15.5-26.4,23.3
	c-0.6,0.7-1.1,1.4-1.6,2.1l0.6,0.6c0.7-0.3,1.4-0.7,2-1.2c2.5-2.4,4.8-5,7.5-7.3c11.8-10.3,23.6-20.6,35.6-30.7
	c16.8-14,33.7-27.7,50.6-41.5c1-0.8,2.1-1.2,3.3-1.4c16.3-1.2,32.7-2.2,49-3.7c6.1-0.6,12-2.4,18-4c1.9-0.6,3.5-1.8,4.6-3.5
	c0.6-1.2,1.9-2,3.2-1.9c9.3-0.6,18.6-1.4,27.9-1.9c5.7-0.3,11.5-0.4,17.2-0.1c6.4,0.4,8.4,2.7,8.8,9.1c0.5,8.7-1,17.3-2.8,25.8
	c-2.4,12.1-5.9,24.1-6,36.6c-0.2,2.7-0.7,5.3-1.7,7.8c-1.3,3.8-3.7,4.7-7.5,3.1c-0.7-0.3-1.3-0.6-2-1c-8.1-4-16.7-6.6-25.6-7.9
	c-18.7-2.9-37.4-1.8-56,0.7c-15.3,2.1-30.6,4.5-45.9,6.7c-15.6,2.3-31,5-45.9,10.4c-14.5,5.3-27.6,12.7-37.5,25
	c-7.9,9.8-14.4,20.5-20.4,31.6c-9.5,17.6-17.5,35.7-20.5,55.7c-1.8,11.7-1.9,23.2,2.2,34.5c0.2,1-0.1,1.9-0.7,2.7
	c-13.6,12.9-26.4,26.7-38.2,41.2c-4.2,5.2-7.9,10.9-11.7,16.4c-0.4,0.8-0.6,1.6-0.7,2.5l0.9,0.4c0.8-1.1,2.1-2.1,2.3-3.2
	c0.4-3.1,2.2-5.2,4-7.5c12.9-16.3,26.8-31.6,41.8-46c1.2-1.1,2.4-2.2,3.8-3.4c4,8.8,10.3,16.5,18.2,22.2
	c-9.3,13.5-18.2,26.9-27.6,40c-7,9.8-14.4,19.3-21.7,28.9c-2.6,3.4-5.7,6.6-8.4,9.9c-0.6,0.9-1.1,1.8-1.5,2.8l0.8,0.7
	c0.8-0.5,1.6-1.1,2.4-1.7c-1-2,0.7-2.7,1.6-3.7c3.9-4.6,8.4-8.9,11.9-13.8c10.4-14.5,20.4-29.2,30.7-43.8
	C125.8,303.2,130.2,297.1,134.6,291z M334.5,161.4c0,0.3-0.1,0.8-0.2,1.3c-0.5,4.7-1.4,9.4-1.2,14.1c0.4,8.2,7,12.2,14.6,9.2
	c1.7-0.7,3.3-1.5,4.8-2.2l2.6,2.1l0.5-0.5c-0.5-0.8-1-1.6-1.6-2.5c0.6-0.5,1.1-1,1.7-1.5c7.1-5.6,12.9-12.6,17.1-20.6
	c4.6-8.8,3.3-18.3-3.2-24.5c-3.6-3.4-7.9-4.6-12.8-4.7l1.1-2.2l-0.4-0.5c-0.6,0.4-1.2,0.8-1.8,1.3c-1,0.8-2,1.9-3.1,2.4
	c-5.2,1.9-9.3,6-11.1,11.1c-0.4,1-0.2,2.3-0.2,3.5c1.2,0,2.6,0.3,3.7-0.2c2.2-0.9,4.3-2.1,6.4-3.2c-0.1,0.5-0.4,0.9-0.8,1.1
	c-5.8,4.4-11.7,8.8-17.5,13.2c-0.8,0.8-1.5,1.8-2,2.9L334.5,161.4z M348.7,245.3l-0.8-0.5c-0.6,0.8-1.2,1.6-1.7,2.5
	c-7.8,12.9-14.8,26.3-23.5,38.5c-22.3,31.2-45.3,61.9-68.1,92.8c-3.1,4.3-6.5,8.4-9.8,12.7l-0.9-2.8l-0.7,0.1v5.5
	c0.8-0.5,1.6-1.1,2.4-1.8c1.3-1.4,2.4-3,3.6-4.5c19.4-25.9,38.8-51.9,58.2-77.8c14.5-19.5,28.2-39.6,39.6-61.1
	C347.6,247.8,348.1,246.5,348.7,245.3L348.7,245.3z M203.1,387.5l0.7,0.5c0.6-0.5,1.2-1,1.8-1.6c13-12.9,25.1-26.7,36.2-41.2
	c14.7-19.2,29.2-38.6,43.9-57.8c4.3-5.6,9-10.7,15.8-13.4c0.3-0.1,0.5-0.7,0.7-1l-0.3-0.5c-1.3,0.4-2.5,0.9-3.7,1.6
	c-3.3,2.6-7.1,4.9-9.7,8.1c-8.5,10.3-16.8,20.7-24.7,31.4c-18.6,25.3-37.3,50.5-59.8,72.5C203.6,386.5,203.3,387,203.1,387.5z
	 M214.2,324.3l-0.3-0.9c-1.6,0.5-3.2,0.8-4.8,1.4c-9.6,3.5-17.4,9.7-24.5,16.8c-7.4,7.5-14.5,15.4-21.7,23.2s-14.9,15.5-19.9,25.1
	c-0.2,0.4-0.9,0.6-1.2,1c-0.2,0.5-0.4,1-0.5,1.6c0.6,0,1.3,0.2,1.6-0.1c0.5-0.5,1-1.1,1.3-1.8c1.3-2.3,2.7-4.6,4.2-6.8
	c12-15.2,25.2-29.2,38.9-42.9c7.3-7.3,15.7-13.4,26.1-16C213.6,324.9,213.9,324.5,214.2,324.3L214.2,324.3z M348.8,303.2l-1.1-0.6
	c-1.6,3.5-3.1,7-4.7,10.5s-3.3,7.1-5,10.6s-3.5,7-5.4,10.4s-3.7,6.7-5.6,10s-4,6.7-6.1,10s-4.2,6.6-6.4,9.8s-4.6,6.3-6.8,9.5
	c-2.1,3-4.9,5.7-6.2,9.2C321.6,358.7,336.7,331.8,348.8,303.2L348.8,303.2z M109.6,380.6l0.6,0.4l50.7-64l-0.8-0.7
	C143.1,337.6,124.9,358,109.6,380.6L109.6,380.6z M253.3,85.1c18.4-15,38.4-27.8,53.5-46.3c-0.8,0.1-1.6,0.5-2.1,1.1
	c-5.6,5.3-10.8,11.1-16.8,16c-11,9-22.5,17.4-33.8,26.1c-1.1,0.8-2.2,1.8-3.1,2.8c-0.2,0.3,0.3,1.8,0.5,1.8c1.5-0.1,3-0.3,4.5-0.6
	l-0.1-0.9L253.3,85.1z M288.3,86.3c0.8-1.1,1.6-2.2,2.6-3.1c2-1.6,4.1-3.2,6.2-4.6c5-3.4,10-6.5,14.9-10
	c9.2-6.5,16.9-14.5,21.8-24.9c0.3-0.9,0.6-1.8,0.8-2.7l-0.8-0.3c-0.4,0.8-0.9,1.7-1.3,2.5c-3.2,7-7.9,13.2-13.9,18.1
	c-6.9,5.5-14.3,10.3-21.4,15.5c-3,2.2-5.8,4.4-8.6,6.8c-1.1,0.9-1.8,2.3-0.7,3.8c1,1.3,3.6,1.4,5.2,0.2L288.3,86.3z M369.6,59.9
	l-0.6-0.6c-0.5,0.2-1,0.6-1.4,0.9c-6.8,8.3-15.4,14.4-24.3,20.2c-6.6,4.3-13.3,8.5-19.9,12.8c-0.6,0.5-1.2,1.1-1.7,1.8l0.5,0.5
	c0.6-0.3,1.1-0.6,1.7-0.9c4.8-3.1,9.7-6.1,14.5-9.2c10.2-6.5,20.4-12.9,28.5-22C367.9,62.2,368.8,61,369.6,59.9L369.6,59.9z"/>
<path d="M134.6,291c-4.4,6.1-8.9,12.2-13.2,18.4c-10.2,14.6-20.3,29.3-30.7,43.8c-3.5,4.9-8,9.2-11.9,13.8c-0.8,1-2.6,1.7-1.6,3.7
	c-0.8,0.6-1.6,1.1-2.4,1.7l-0.8-0.7c0.4-1,0.9-1.9,1.5-2.8c2.8-3.3,5.8-6.5,8.4-9.9c7.3-9.6,14.7-19.1,21.7-28.9
	c9.3-13.2,18.3-26.6,27.6-40c-7.9-5.7-14.1-13.3-18.2-22.2c-1.4,1.2-2.6,2.3-3.8,3.4c-14.9,14.4-28.9,29.7-41.8,46
	c-1.7,2.2-3.6,4.3-4,7.5c-0.1,1.2-1.5,2.2-2.3,3.2l-0.9-0.4c0.1-0.9,0.3-1.7,0.7-2.5c3.8-5.5,7.5-11.2,11.7-16.4
	c11.9-14.5,24.7-28.2,38.3-41.1c0.6-0.7,0.9-1.7,0.7-2.7c-4.1-11.3-3.9-22.9-2.2-34.5c3-20,11-38.1,20.5-55.7
	c6-11.1,12.5-21.8,20.4-31.6c9.9-12.3,23-19.7,37.5-25c14.8-5.4,30.3-8.1,45.9-10.4c15.3-2.3,30.6-4.6,45.9-6.7
	c18.6-2.6,37.3-3.7,56-0.7c8.9,1.3,17.5,4,25.6,7.9c0.7,0.3,1.3,0.7,2,1c3.8,1.5,6.2,0.7,7.5-3.1c1-2.5,1.6-5.1,1.7-7.8
	c0.1-12.5,3.5-24.5,6-36.6c1.7-8.5,3.2-17,2.8-25.8c-0.3-6.4-2.3-8.8-8.8-9.1c-5.7-0.3-11.5-0.2-17.2,0.1
	c-9.3,0.5-18.6,1.3-27.9,1.9c-1.4-0.1-2.6,0.7-3.2,1.9c-1.1,1.7-2.7,2.9-4.6,3.5c-5.9,1.6-11.9,3.4-18,4c-16.3,1.5-32.7,2.5-49,3.7
	c-1.2,0.1-2.4,0.6-3.3,1.4c-16.9,13.8-33.8,27.5-50.6,41.5c-12,10-23.8,20.4-35.6,30.7c-2.6,2.3-5,4.9-7.5,7.3
	c-0.6,0.5-1.3,0.9-2,1.2l-0.6-0.6c0.4-0.8,1-1.5,1.6-2.1c8.8-7.8,17.4-15.8,26.4-23.3c21.9-18.4,43.9-36.5,65.9-54.7
	c0.3-0.2,0.8-0.3,0.9-0.7c-60.6,1-120.8,0.1-181.1-3.3v-1.4c1.3,0,2.7,0,4,0c21.5,0.9,42.9,2.1,64.4,2.5c30.7,0.6,61.3,0.5,92,0.7
	c6.1,0,12.2-0.1,18.2-0.4c2.7-0.3,5.4-0.7,8-1.2c0.2,0.1,1.1,0.9,1.9,0.8c18.6-0.8,37.3-1.4,55.7-5c3.3-0.8,6.6-1.8,9.7-3.1
	c1-0.4,1.7-1.4,2.5-2.1l-0.3-0.7l-8.4,0.8l-0.2-1.1c1.4-0.2,2.7-0.6,4.1-0.7c9.6-0.7,19.3-1.5,28.9-2c8-0.5,16-0.7,23.9-1
	c0.4,0,0.8,0,1.2,0.1c7.2,0.8,9.9,3.7,10.1,11c0.3,9.9-1.4,19.6-3.6,29.2c-2.7,11.5-4.9,22.9-5.4,34.7c-0.2,2.3-0.7,4.6-1.7,6.7
	c-1.7,4.3-4.8,5.4-9.1,3.7c-4.8-2-9.6-4.2-14.6-5.8c-13.1-4.2-26.6-5-40.2-4.7c-17.6,0.3-34.9,3.3-52.3,6c-12.7,2-25.4,3.6-38,5.7
	c-15.4,2.7-30.3,6.9-44.2,14.2c-11.6,6-20.5,14.8-27.7,25.4c-13.9,20.5-25.8,42.2-32.3,66.3c-3.2,11.6-5,23.5-3.3,35.6
	c0.5,4,1.7,7.9,2.7,12.4l7.9-6.9l0.7,0.7c-0.4,0.5-0.8,1-1.2,1.5c-1.7,1.6-3.4,3.2-5.2,4.7c-1,0.6-1.3,1.9-0.7,2.9
	c0,0,0.1,0.1,0.1,0.1c4.1,8.4,10.3,15.6,17.9,20.9l1.9-3.1l0.9,0.7c-0.5,1-1,1.9-1.8,3.4c4.1,2.2,8.2,4.7,12.6,6.6
	c13,5.8,26.7,8.5,40.8,9.6c12.4,1,24.6,0.6,36.6-3c20.7-6.2,37.5-17.7,48.5-36.7c2-3.5,3.6-7.1,5-10.9c4.6-12.6,13.2-19.1,26.8-19.4
	c8.9-0.2,17.8,0.1,26.7,0.2c7.1,0.1,14.1,0.1,21.2,0.2c0.9,0.1,1.8,0.2,2.7,0.4c6.2,1.3,7.7,2.7,6.8,9c-1.2,8.8-2.9,17.5-5.2,26.1
	c-2.8,10.5-3.6,21.3-4.9,32c-1.7,14-3.2,28-4.9,41.9c-1.4,11.5-3,22.9-4.6,34.3c-1,7.2-3.1,13.9-8,20.2c5.5,0.6,10.6,0.8,15.5-1.1
	c2.3-0.9,2.9-2.8,2.1-5.2c-0.3-0.7-0.6-1.4-0.9-2c-0.3-0.6-0.5-1.3-0.5-2c2.2,1.1,2.8,3.2,3.1,5.3c0.4,1.9-0.5,3.8-2.3,4.6
	c-2.1,0.9-4.2,1.5-6.4,1.9c-1.2,0.3-2.5,0.4-3.7,0.2c-5-0.6-9.7-0.2-13.4,3.8c-0.3,0.3-1,0.3-1.4,0.5l-0.4-0.6l4.7-3.8l-0.2-0.6
	c-7-0.5-14-1.1-21.1-1.5c-17.9-1-35.8-2-53.7-2.8c-17.7-0.7-35.5-1.1-53.2-1.4c-12.2-0.2-24.5-0.5-36.7-0.2
	c-14.2,0.4-28.4,1.4-42.7,2c-20.6,0.9-41.3,2-61.9,0.7c-2.8-0.3-5.6-0.7-8.4-1.2c-2.3-0.4-3.5-1.8-3.1-4.2c0-0.3,0-0.7,0.1-1
	c3.2-10.2,1.8-20.8,2.9-31.2c1.2-11.8,2.3-23.7,3.3-35.6c0.8-9.9,1.6-19.8,2.2-29.6c1-15.2,1.7-30.4,2.6-45.7
	c1.1-18.3,2.2-36.5,3.3-54.8c0.6-10.2,1.4-20.4,2.1-30.7c0.1-1.2,0.7-2.7-1.1-3.4c-0.2-0.1-0.4-1-0.2-1.3c3.2-5.3,2.1-11.3,2.7-17
	c1.8-16.5,3.3-33.1,5-49.7c0.1-0.7,0.1-1.5,0.2-2.9c-2.2,1.9-4.1,3.3-5.8,5c-3.3,3.2-6.8,6.4-9.8,9.9c-2.4,2.7-2.2,3.3-0.1,5.7
	c-2.1,0.6-3.6-0.7-2.9-2.8c0.5-1.7,1.3-3.2,2.5-4.5c4.6-4.6,9.3-9,14.2-13.3c1.6-1.4,2.7-3.3,3.1-5.3C78.3,72.1,81.1,59.1,84,46
	c0.2-0.8,0.7-1.4,1.4-1.8c-3,14-5.9,28-8.9,41.9l0.9,0.5c3.2-2.5,6.4-5,9.5-7.6c6.8-5.7,13.4-11.5,20.2-17.1
	c2.1-1.5,4.4-2.7,6.8-3.6c1.7-0.7,2.6,0.2,2.7,2.4c-2.8-2.3-5-0.4-6.8,1c-7.3,5.7-14.3,11.7-21.4,17.5c-3.5,2.9-7.1,5.6-10.4,8.5
	c-1,0.8-1.6,2-1.9,3.3c-2.1,20.5-4,40.9-6,61.4c0,0.2,0,0.4,0.1,0.5c0.2-0.1,0.5-0.1,0.7-0.3c7.4-8.2,14.8-16.2,22-24.5
	c8.5-9.8,16.8-19.8,25-29.8c10.7-13.1,21.2-26.4,34.7-36.8c5.4-4.2,11.6-7.4,17.5-11c0.7-0.3,1.4-0.5,2.1-0.7l0.3,0.6
	c-0.3,0.4-0.7,0.7-1.1,1c-12.8,5.7-23.4,14.5-32.5,24.8c-11.9,13.5-22.9,27.7-34.7,41.3c-7.4,8.6-15.6,16.7-23.2,25.2
	c-3.6,4-6.8,8.4-10.1,12.7c-0.6,1-1,2.1-1.2,3.2l0.6,0.3l4.4-2.5l0.6,0.7c-0.6,0.7-1.2,1.3-2,1.7c-2.9,1.2-3.7,3.2-3.9,6.3
	c-1.1,19.5-2.5,39-3.8,58.6c-0.4,5.7-0.7,11.3-0.6,17.3c3.4-3.6,7.1-6.8,10-10.8c6.8-9.2,13-18.7,19.6-28.1
	c5.4-7.8,11.2-15.3,18.8-21.3c1.7-1.3,3.6-2.5,5.3-3.7l0.5,0.6c-0.3,0.4-0.4,0.9-0.8,1.2c-9,5.8-15.6,14-21.6,22.6
	c-7.1,10-13.8,20.2-21,30.1c-2.6,3.5-6.1,6.4-9,9.7c-1.1,1.2-1.9,2.7-2.3,4.3c-0.2,1.4,0.6,2.9,1.1,4.7l-1.4,0.3
	c-0.5,8.4-0.9,16.9-1.5,25.3c-1.1,16.4-2.2,32.7-3.4,49.1c-1.4,19.1-4.2,38.1-4.2,57.3c0,3.4-1.2,6.9-2,10.2
	c-0.6,2.5,0.3,3.7,2.7,3.9c4.7,0.5,9.4,1.4,14.2,1.3c22.8-0.4,45.7-0.6,68.4-1.8c23.7-1.2,47.3-1.7,70.9-1
	c31.4,0.9,62.8,2.2,94.1,3.6c9.8,0.4,19.6,1.5,29.4,2.2c1-0.1,2-0.5,2.6-1.3c4.1-4.8,6-10.6,7-16.6c1.4-8.8,2.4-17.6,3.5-26.5
	c-5.9,10.9-12.1,21.6-20.5,30.8c-0.1,0.1-0.4,0.1-1.3,0.2c0.5-0.9,1-1.8,1.6-2.6c7.2-8.6,12.9-18.1,18.2-28
	c2.6-4.8,3.6-9.9,4.2-15.2c2.2-19.4,4.2-38.9,6.7-58.3c0.8-6.5,3.1-12.7,4.6-19.2c1.2-5.4,2.1-10.9,3.1-16.4c0.1-0.7,0.2-1.3,0.2-2
	c0.1-5-0.5-6.1-5.4-6.9c-4.3-0.7-8.6-1-12.9-1.1c-9.9-0.2-19.8-0.2-29.7-0.1c-4.7,0-9.5,0.3-14.2,1c-9.9,1.7-15.9,8-19.2,17.3
	c-3.2,9.1-8.2,17.5-14.8,24.7c-12.2,13.5-28.5,22.5-46.4,25.7c-26.9,4.9-52.8,1-77.5-10.9C139.7,294.2,137.4,292.6,134.6,291z"/>
<path d="M334.5,161.4l-3.3-0.5c0.5-1.1,1.2-2,2-2.9c5.8-4.5,11.7-8.8,17.5-13.2c0.4-0.3,0.7-0.7,0.8-1.1c-2.1,1.1-4.2,2.3-6.4,3.2
	c-1.1,0.4-2.5,0.1-3.7,0.2c0-1.2-0.2-2.5,0.2-3.5c1.9-5.1,5.9-9.2,11-11.1c1.2-0.4,2.1-1.6,3.1-2.4c0.6-0.4,1.2-0.8,1.8-1.3l0.4,0.5
	l-1.1,2.2c4.9,0.1,9.3,1.3,12.8,4.7c6.5,6.2,7.8,15.7,3.2,24.5c-4.2,8-10,15-17.1,20.6c-0.6,0.5-1.1,1-1.7,1.5
	c0.6,1,1.1,1.8,1.6,2.5l-0.5,0.5l-2.6-2.1c-1.5,0.7-3.1,1.6-4.8,2.2c-7.6,3-14.3-1-14.6-9.2c-0.2-4.7,0.8-9.4,1.2-14.1
	C334.3,162.2,334.4,161.8,334.5,161.4z M357.7,138.9l0.7,1c-5.5,5.8-12.4,10-18.5,15.3c0.8,0.2,1.6,0,2.3-0.4
	c3.6-2.4,7.1-4.9,10.9-7.1c1.1-0.6,2.7-0.4,4.1-0.5c-0.3,1.4-0.3,3.1-1,4.3c-1.1,1.7-2.4,3.2-3.8,4.6c-3.2,3.7-6.5,7.4-9.8,11.1
	c0.9,0,1.7-0.2,2.5-0.6c2.3-1.1,4.7-2.2,7-3.2c0.8-0.1,1.5-0.1,2.3,0c-0.2,0.8-0.2,1.9-0.7,2.4c-2.2,2.5-4.6,4.8-6.9,7.2
	c-0.6,0.7-1.2,1.4-1.8,2c0.9,0.2,1.8,0.2,2.8,0c3-0.7,6-1.5,9-2.1c0.7-0.2,1.5,0,2,0.5c0.3,0.4-0.1,1.4-0.4,2
	c-0.7,1.1-1.5,2-2.2,3.1c7.9-6.5,14.6-14,17.6-24c2.4-8.6-2.1-17.6-10.4-20.7c-3.1-1.1-6.6-2-9.3,0.2c-3.6,3-7,6.2-10.2,9.5
	c-0.6,0.7-1.1,1.4-1.5,2.2l0.6,0.6L357.7,138.9z M341.4,158.5c-1,0.2-2.3,0.1-3,0.7c-1.1,0.9-2,2-2.5,3.3c-0.7,2.1-1.1,4.4-1.2,6.6
	c-0.3,3.6-1,7.2,0.5,10.8c2.1,4.9,5.7,6.5,10.8,5.3c5.9-1.4,8.2-6.1,11.2-10.8c-1,0.2-1.6,0.3-2.2,0.4c-3.1,0.7-6.1,1.5-9.2,2.1
	c-0.9,0-1.7-0.2-2.5-0.6c0.2-0.8,0.5-1.5,0.9-2.2c1.3-1.6,2.8-3,4.2-4.5s2.7-2.8,4.1-4.3L352,165l-11.7,5.5l-0.8-1
	c0.8-1.3,1.7-2.6,2.7-3.9c4.2-4.9,8.4-9.7,12.5-14.5c0.6-0.8,1-1.7,1.4-2.6c-1.1-0.1-2.1,0.2-3,0.7c-3.2,2.1-6.4,4.2-9.5,6.4
	C342.8,156.4,342,157.4,341.4,158.5z"/>
<path d="M348.7,245.3c-0.6,1.2-1.1,2.5-1.8,3.7c-11.4,21.5-25.1,41.6-39.6,61.1c-19.3,26-38.7,51.9-58.2,77.8
	c-1.1,1.5-2.3,3-3.6,4.5c-0.7,0.7-1.5,1.2-2.4,1.8v-5.5l0.7-0.1l0.9,2.8c3.3-4.3,6.7-8.4,9.8-12.7c22.8-30.9,45.8-61.6,68.1-92.8
	c8.7-12.2,15.7-25.7,23.5-38.5c0.5-0.9,1.1-1.7,1.7-2.5L348.7,245.3z"/>
<path d="M203.1,387.5c0.2-0.5,0.5-1,0.9-1.4c22.5-22,41.2-47.3,59.8-72.5c7.9-10.7,16.2-21.1,24.7-31.4c2.6-3.2,6.4-5.5,9.7-8.1
	c1.2-0.7,2.4-1.2,3.7-1.6l0.3,0.5c-0.2,0.3-0.4,0.9-0.7,1c-6.8,2.7-11.5,7.8-15.8,13.4c-14.7,19.2-29.2,38.6-43.9,57.8
	c-11.1,14.5-23.2,28.3-36.2,41.2c-0.6,0.6-1.2,1.1-1.8,1.6L203.1,387.5z"/>
<path d="M214.2,324.2c-0.3,0.2-0.5,0.6-0.8,0.7c-10.4,2.6-18.7,8.6-26.1,16c-13.7,13.7-26.9,27.7-38.9,42.9
	c-1.5,2.2-2.9,4.4-4.2,6.8c-0.3,0.7-0.7,1.3-1.3,1.8c-0.4,0.3-1.1,0.1-1.6,0.1c0.1-0.5,0.2-1.1,0.5-1.6c0.3-0.4,1-0.6,1.2-1
	c5.1-9.6,12.7-17.3,19.9-25.1s14.3-15.6,21.7-23.2c7-7.2,14.8-13.4,24.5-16.8c1.6-0.6,3.2-0.9,4.8-1.4L214.2,324.2z"/>
<path d="M348.8,303.1c-12.1,28.7-27.1,55.6-47.3,79.5c1.3-3.6,4-6.2,6.2-9.2c2.2-3.2,4.6-6.3,6.8-9.5s4.4-6.5,6.4-9.8
	s4.1-6.7,6.1-10s3.8-6.6,5.6-10s3.6-6.9,5.4-10.4s3.4-7,5-10.6s3.2-7,4.7-10.5L348.8,303.1z"/>
<path d="M109.6,380.6c15.3-22.6,33.4-43,50.5-64.2l0.8,0.7l-50.7,64L109.6,380.6z"/>
<path d="M253.3,85.1h2.6l0.1,0.9c-1.5,0.2-3,0.5-4.5,0.6c-0.2,0-0.7-1.5-0.5-1.8c0.9-1.1,2-2,3.1-2.8c11.3-8.7,22.7-17.1,33.8-26.1
	c6-4.9,11.2-10.6,16.8-16c0.6-0.6,1.3-1,2.1-1.1C291.6,57.2,271.6,70.1,253.3,85.1z"/>
<path d="M288.3,86.3l4.9,1.2c-1.7,1.3-4.2,1.1-5.2-0.2c-1.2-1.5-0.4-2.8,0.7-3.8c2.8-2.4,5.7-4.6,8.6-6.8c7.1-5.2,14.5-10,21.4-15.5
	c6-4.9,10.7-11.1,13.9-18.1c0.4-0.8,0.9-1.7,1.3-2.5l0.8,0.3c-0.2,0.9-0.4,1.8-0.8,2.7C329,54.1,321.3,62,312,68.6
	c-4.9,3.5-10,6.6-14.9,10c-2.1,1.4-4.2,3-6.2,4.6C289.9,84.1,289.1,85.2,288.3,86.3z"/>
<path d="M369.7,59.9c-0.9,1.1-1.7,2.3-2.7,3.3c-8.1,9.1-18.3,15.6-28.5,22c-4.8,3.1-9.7,6.2-14.5,9.2c-0.5,0.3-1.1,0.6-1.7,0.9
	l-0.5-0.5c0.5-0.6,1.1-1.2,1.7-1.8c6.6-4.3,13.3-8.5,19.9-12.8c8.9-5.8,17.5-11.9,24.3-20.2c0.4-0.4,0.9-0.7,1.4-0.9L369.7,59.9z"/>
<path class="st1" d="M357.6,138.9l-14.8,7.6l-0.6-0.6c0.4-0.8,0.9-1.6,1.5-2.2c3.2-3.4,6.6-6.6,10.2-9.5c2.8-2.2,6.2-1.2,9.3-0.2
	c8.3,3.1,12.9,12.1,10.4,20.7c-3,10-9.7,17.4-17.6,24c0.8-1,1.6-2,2.2-3.1c0.3-0.6,0.7-1.6,0.4-2c-0.5-0.5-1.3-0.7-2-0.5
	c-3,0.6-6,1.4-9,2.1c-0.9,0.2-1.8,0.2-2.8,0c0.6-0.7,1.2-1.4,1.8-2c2.3-2.4,4.7-4.7,6.9-7.2c0.5-0.5,0.4-1.6,0.7-2.4
	c-0.8-0.1-1.5-0.1-2.3,0c-2.4,1-4.7,2.1-7,3.2c-0.8,0.4-1.6,0.6-2.5,0.6c3.2-3.7,6.5-7.4,9.8-11.1c1.4-1.4,2.7-3,3.8-4.6
	c0.7-1.2,0.7-2.8,1-4.3c-1.4,0.1-3-0.1-4.1,0.5c-3.7,2.2-7.2,4.7-10.9,7.1c-0.7,0.4-1.5,0.5-2.3,0.4c6.1-5.3,13-9.5,18.5-15.3
	L357.6,138.9z"/>
<path class="st2" d="M341.4,158.5c0.7-1.1,1.5-2,2.4-2.9c3.1-2.2,6.3-4.3,9.5-6.4c0.9-0.6,1.9-0.8,3-0.7c-0.4,0.9-0.9,1.8-1.4,2.6
	c-4.2,4.9-8.4,9.7-12.5,14.5c-1,1.2-1.8,2.5-2.7,3.9l0.8,1L352,165l0.4,0.5c-1.4,1.4-2.7,2.8-4.1,4.3s-2.9,3-4.2,4.5
	c-0.4,0.7-0.7,1.4-0.9,2.2c0.8,0.4,1.6,0.6,2.5,0.6c3.1-0.6,6.1-1.4,9.2-2.1c0.6-0.1,1.3-0.2,2.2-0.4c-3,4.7-5.3,9.4-11.2,10.8
	c-5.2,1.2-8.8-0.4-10.8-5.3c-1.5-3.6-0.8-7.2-0.5-10.8c0.2-2.2,0.6-4.5,1.2-6.6c0.5-1.3,1.4-2.5,2.5-3.3
	C339.1,158.5,340.4,158.6,341.4,158.5z"/>
</svg>
